<svg width="1380" height="213" viewBox="0 0 1380 213" fill="none" xmlns="http://www.w3.org/2000/svg">
<path d="M137.156 209.092L174.234 64.8119H175.546V209.092H231.327V3.90825H146.999L117.796 132.881H116.812L86.2965 3.90825H0V209.092H51.1873V64.8119H52.4998L89.5777 209.092H137.156Z" fill="#23211A"/>
<path d="M468.16 106.5C468.16 43.3165 420.911 0 360.864 0C300.817 0 253.568 43.3165 253.568 106.5C253.568 169.683 300.817 213 360.864 213C420.911 213 468.16 169.683 468.16 106.5ZM410.739 106.5C410.739 141.349 391.379 164.147 360.864 164.147C330.348 164.147 310.989 141.349 310.989 106.5C310.989 71.6514 330.348 48.8532 360.864 48.8532C391.379 48.8532 410.739 71.6514 410.739 106.5Z" fill="#23211A"/>
<path d="M543.739 3.90825H490.583V209.092H541.77V87.6101L631.02 209.092H675.645V3.90825H624.457V117.573L543.739 3.90825Z" fill="#23211A"/>
<path d="M825.976 209.092V49.5046H897.835V3.90825H699.649V49.5046H770.524V209.092H825.976Z" fill="#23211A"/>
<path d="M1014.74 77.8394L968.151 3.90825H906.136L985.542 131.252V209.092H1039.68V131.252L1119.09 3.90825H1059.04L1014.74 77.8394Z" fill="#23211A"/>
<path d="M1129.07 52.7615H1154C1153.68 65.789 1144.82 70.0229 1129.07 70.6743V95.7523C1165.82 94.7752 1184.52 81.422 1184.52 49.5046V3.90825H1129.07V52.7615Z" fill="#23211A"/>
<path d="M1197.56 136.463C1197.56 185.968 1237.59 213 1293.7 213C1341.94 213 1380 191.179 1380 147.537C1380 113.991 1360.31 91.5183 1317 84.0275L1277.95 77.1881C1265.16 74.9082 1257.28 71.3257 1257.28 61.8807C1257.28 50.4816 1267.78 43.3165 1286.16 43.3165C1307.48 43.3165 1322.91 53.0871 1324.55 74.2569L1375.73 73.2798C1374.75 27.6835 1343.91 0 1286.81 0C1235.3 0 1202.49 25.078 1202.49 66.7661C1202.49 102.592 1226.11 121.482 1259.91 127.67L1297.64 134.183C1313.39 137.115 1325.53 139.069 1325.53 151.119C1325.53 162.518 1313.06 169.358 1293.7 169.358C1270.73 169.358 1250.72 160.564 1248.75 134.835L1197.56 136.463Z" fill="#23211A"/>
</svg>
